<svg width="139" height="38" viewBox="0 0 139 38" fill="none" xmlns="http://www.w3.org/2000/svg">
<path d="M21.8871 11.0945C21.745 9.66217 21.1354 8.54948 20.0582 7.75639C18.9811 6.9633 17.5192 6.56676 15.6726 6.56676C14.4179 6.56676 13.3584 6.74432 12.4943 7.09943C11.6302 7.44271 10.9673 7.92211 10.5057 8.53764C10.0559 9.15317 9.83097 9.85156 9.83097 10.6328C9.80729 11.2839 9.94342 11.852 10.2393 12.3374C10.5471 12.8227 10.9673 13.2429 11.5 13.598C12.0327 13.9413 12.6482 14.2431 13.3466 14.5036C14.045 14.7521 14.7907 14.9652 15.5838 15.1428L18.8509 15.924C20.437 16.2791 21.893 16.7526 23.2188 17.3445C24.5445 17.9363 25.6927 18.6643 26.6634 19.5284C27.634 20.3925 28.3857 21.4105 28.9183 22.5824C29.4628 23.7543 29.741 25.0978 29.7528 26.6129C29.741 28.8383 29.1728 30.7678 28.0483 32.4013C26.9356 34.023 25.3258 35.2836 23.2188 36.1832C21.1236 37.071 18.5964 37.5149 15.6371 37.5149C12.7015 37.5149 10.1446 37.0651 7.96662 36.1655C5.80043 35.2659 4.10772 33.9342 2.88849 32.1705C1.68111 30.3949 1.04782 28.1991 0.988636 25.5831H8.42827C8.51113 26.8023 8.86032 27.8203 9.47585 28.6371C10.1032 29.442 10.9377 30.0516 11.9794 30.4659C13.0329 30.8684 14.2225 31.0696 15.5483 31.0696C16.8504 31.0696 17.9808 30.8802 18.9396 30.5014C19.9103 30.1226 20.6619 29.5959 21.1946 28.9212C21.7273 28.2464 21.9936 27.4711 21.9936 26.5952C21.9936 25.7784 21.7509 25.0919 21.2656 24.5355C20.7921 23.9792 20.0938 23.5057 19.1705 23.1151C18.259 22.7244 17.1404 22.3693 15.8146 22.0497L11.8551 21.0554C8.7893 20.3097 6.36861 19.1437 4.59304 17.5575C2.81747 15.9714 1.93561 13.8348 1.94744 11.1477C1.93561 8.94602 2.52154 7.02249 3.70526 5.37713C4.90081 3.73177 6.54025 2.44744 8.62358 1.52415C10.7069 0.600851 13.0743 0.139203 15.7259 0.139203C18.4247 0.139203 20.7803 0.600851 22.7926 1.52415C24.8168 2.44744 26.3911 3.73177 27.5156 5.37713C28.6402 7.02249 29.2202 8.92827 29.2557 11.0945H21.8871ZM47.2111 37.5327C44.4057 37.5327 41.9909 36.9645 39.9668 35.8281C37.9545 34.6799 36.4038 33.0582 35.3148 30.9631C34.2258 28.8561 33.6813 26.3643 33.6813 23.4879C33.6813 20.6825 34.2258 18.2204 35.3148 16.1016C36.4038 13.9827 37.9367 12.3314 39.9135 11.1477C41.9022 9.96401 44.2341 9.37216 46.9093 9.37216C48.7085 9.37216 50.3835 9.66217 51.9341 10.2422C53.4966 10.8104 54.8579 11.6686 56.0179 12.8168C57.1898 13.965 58.1013 15.4091 58.7523 17.1491C59.4034 18.8774 59.7289 20.9015 59.7289 23.2216V25.299H36.6998V20.6115H52.6088C52.6088 19.5225 52.3721 18.5578 51.8986 17.7173C51.4251 16.8769 50.7682 16.2199 49.9277 15.7464C49.0991 15.2611 48.1344 15.0185 47.0336 15.0185C45.8854 15.0185 44.8674 15.2848 43.9796 15.8175C43.1036 16.3383 42.4171 17.0426 41.9199 17.9304C41.4228 18.8063 41.1683 19.7829 41.1564 20.8601V25.3168C41.1564 26.6662 41.405 27.8321 41.9022 28.8146C42.4112 29.7971 43.1273 30.5547 44.0506 31.0874C44.9739 31.62 46.0688 31.8864 47.3354 31.8864C48.1758 31.8864 48.9453 31.768 49.6436 31.5312C50.342 31.2945 50.9398 30.9394 51.437 30.4659C51.9341 29.9924 52.3129 29.4124 52.5733 28.7259L59.5691 29.1875C59.214 30.8684 58.486 32.3362 57.3851 33.5909C56.2961 34.8338 54.8875 35.8045 53.1593 36.5028C51.4429 37.1894 49.4602 37.5327 47.2111 37.5327ZM72.2289 0.636363V37H64.665V0.636363H72.2289ZM85.8519 0.636363V37H78.288V0.636363H85.8519ZM104.34 37.5327C101.535 37.5327 99.1199 36.9645 97.0957 35.8281C95.0834 34.6799 93.5327 33.0582 92.4437 30.9631C91.3547 28.8561 90.8102 26.3643 90.8102 23.4879C90.8102 20.6825 91.3547 18.2204 92.4437 16.1016C93.5327 13.9827 95.0656 12.3314 97.0424 11.1477C99.0311 9.96401 101.363 9.37216 104.038 9.37216C105.837 9.37216 107.512 9.66217 109.063 10.2422C110.626 10.8104 111.987 11.6686 113.147 12.8168C114.319 13.965 115.23 15.4091 115.881 17.1491C116.532 18.8774 116.858 20.9015 116.858 23.2216V25.299H93.8287V20.6115H109.738C109.738 19.5225 109.501 18.5578 109.028 17.7173C108.554 16.8769 107.897 16.2199 107.057 15.7464C106.228 15.2611 105.263 15.0185 104.162 15.0185C103.014 15.0185 101.996 15.2848 101.108 15.8175C100.233 16.3383 99.546 17.0426 99.0488 17.9304C98.5517 18.8063 98.2972 19.7829 98.2853 20.8601V25.3168C98.2853 26.6662 98.5339 27.8321 99.0311 28.8146C99.5401 29.7971 100.256 30.5547 101.18 31.0874C102.103 31.62 103.198 31.8864 104.464 31.8864C105.305 31.8864 106.074 31.768 106.773 31.5312C107.471 31.2945 108.069 30.9394 108.566 30.4659C109.063 29.9924 109.442 29.4124 109.702 28.7259L116.698 29.1875C116.343 30.8684 115.615 32.3362 114.514 33.5909C113.425 34.8338 112.016 35.8045 110.288 36.5028C108.572 37.1894 106.589 37.5327 104.34 37.5327ZM121.794 37V9.72727H129.127V14.4858H129.411C129.908 12.7931 130.743 11.5147 131.915 10.6506C133.086 9.77462 134.436 9.33665 135.963 9.33665C136.342 9.33665 136.75 9.36032 137.188 9.40767C137.626 9.45502 138.011 9.52012 138.342 9.60298V16.3146C137.987 16.2081 137.496 16.1134 136.868 16.0305C136.241 15.9477 135.667 15.9062 135.146 15.9062C134.033 15.9062 133.039 16.1489 132.163 16.6342C131.299 17.1077 130.613 17.7706 130.104 18.6229C129.606 19.4751 129.358 20.4576 129.358 21.5703V37H121.794Z" fill="#3D8A68"/>
</svg>
